<svg width="113" height="67" viewBox="0 0 113 67" fill="none" xmlns="http://www.w3.org/2000/svg">
<line x1="73.835" y1="17.471" x2="105.937" y2="17.471" stroke="#00748D" stroke-width="2.29669"/>
<line x1="7.0625" y1="17.471" x2="39.1648" y2="17.471" stroke="#00748D" stroke-width="2.29669"/>
<circle cx="56.4849" cy="17.4166" r="17.4166" fill="#00748D"/>
<circle cx="56.4853" cy="17.4166" r="9.12297" fill="white"/>
<circle cx="4.49432" cy="17.3352" r="4.49432" fill="#353535"/>
<circle cx="108.506" cy="17.3352" r="4.49432" fill="#353535"/>
<path d="M23.0043 56V45.8457H26.0728L27.9152 52.7722L29.7369 45.8457H32.8123V56H30.9075V48.0068L28.8919 56H26.9178L24.9091 48.0068V56H23.0043ZM44.0055 56H41.7752L40.8886 53.6935H36.8297L35.9915 56H33.8166L37.7717 45.8457H39.9397L44.0055 56ZM40.2306 51.9826L38.8314 48.2146L37.46 51.9826H40.2306ZM45.1207 56V45.8457H47.1155L51.2714 52.6268V45.8457H53.1762V56H51.119L47.0255 49.3783V56H45.1207Z" fill="#00748D"/>
<path d="M57.6369 56V47.5635H54.6239V45.8457H62.6932V47.5635H59.6871V56H57.6369ZM72.1271 56H69.8968L69.0102 53.6935H64.9513L64.1132 56H61.9382L65.8933 45.8457H68.0613L72.1271 56ZM68.3522 51.9826L66.953 48.2146L65.5816 51.9826H68.3522ZM79.7186 52.2666L81.7065 52.8969C81.4017 54.0052 80.8938 54.8294 80.1827 55.3697C79.4762 55.9053 78.578 56.1732 77.4883 56.1732C76.1399 56.1732 75.0317 55.7137 74.1635 54.7948C73.2954 53.8713 72.8613 52.6106 72.8613 51.0129C72.8613 49.3228 73.2977 48.0114 74.1705 47.0787C75.0432 46.1413 76.1907 45.6726 77.6129 45.6726C78.8551 45.6726 79.864 46.0397 80.6398 46.7739C81.1016 47.208 81.4479 47.8313 81.6788 48.644L79.6493 49.1289C79.5293 48.6025 79.2776 48.1869 78.8943 47.8821C78.5157 47.5774 78.0539 47.425 77.509 47.425C76.7564 47.425 76.1445 47.6951 75.6735 48.2354C75.2071 48.7757 74.9739 49.6507 74.9739 50.8605C74.9739 52.1442 75.2048 53.0585 75.6666 53.6034C76.1284 54.1483 76.7286 54.4208 77.4675 54.4208C78.0124 54.4208 78.4811 54.2476 78.8736 53.9013C79.2661 53.5549 79.5477 53.0101 79.7186 52.2666ZM85.7585 56V47.5635H82.7455V45.8457H90.8149V47.5635H87.8088V56H85.7585Z" fill="black"/>
</svg>
